<svg width="60" height="60" viewBox="0 0 60 60" fill="none" xmlns="http://www.w3.org/2000/svg">
<rect width="60" height="60" rx="30" fill="white"/>
<path d="M30.643 33.133L31.42 32.481C31.6 32.33 31.828 32.247 32.063 32.247H33.077C33.562 32.247 33.978 31.899 34.062 31.421L34.238 30.422C34.279 30.19 34.4 29.981 34.58 29.83L35.357 29.178C35.729 28.866 35.823 28.332 35.58 27.912L35.073 27.033C34.955 26.829 34.913 26.591 34.954 26.359L35.13 25.36C35.214 24.882 34.943 24.413 34.487 24.247L33.534 23.9C33.313 23.82 33.128 23.664 33.01 23.46L32.503 22.581C32.26 22.161 31.751 21.975 31.295 22.141L30.342 22.488C30.121 22.568 29.879 22.568 29.658 22.488L28.705 22.141C28.249 21.975 27.74 22.16 27.497 22.581L26.99 23.46C26.872 23.664 26.687 23.819 26.466 23.9L25.513 24.247C25.057 24.413 24.786 24.882 24.87 25.36L25.046 26.359C25.087 26.591 25.045 26.829 24.927 27.033L24.42 27.912C24.177 28.332 24.271 28.866 24.643 29.178L25.42 29.83C25.6 29.981 25.721 30.191 25.762 30.422L25.938 31.421C26.022 31.899 26.438 32.247 26.923 32.247H27.937C28.172 32.247 28.4 32.33 28.58 32.481L29.357 33.133C29.729 33.445 30.271 33.445 30.643 33.133Z" stroke="#0C0D0D" stroke-width="1.5" stroke-linecap="round" stroke-linejoin="round"/>
<path d="M33.25 34.75V38.25L30 35.75L26.75 38.25V34.75" stroke="#0C0D0D" stroke-width="1.5" stroke-linecap="round" stroke-linejoin="round"/>
<path d="M30 29.724C31.1046 29.724 32 28.8286 32 27.724C32 26.6194 31.1046 25.724 30 25.724C28.8954 25.724 28 26.6194 28 27.724C28 28.8286 28.8954 29.724 30 29.724Z" stroke="#0C0D0D" stroke-width="1.5" stroke-linecap="round" stroke-linejoin="round"/>
</svg>
