<svg width="60" height="60" viewBox="0 0 60 60" fill="none" xmlns="http://www.w3.org/2000/svg">
<rect width="60" height="60" rx="30" fill="white"/>
<path d="M38.9648 32.2457C39.1237 31.5482 39.2009 30.8346 39.1947 30.1192C39.1564 25.0522 34.9609 20.9525 29.9034 21.0004C27.7428 21.0232 25.6593 21.8061 24.0183 23.2118C22.3773 24.6174 21.2837 26.5561 20.9294 28.6876C20.5751 30.8191 20.9827 33.0072 22.0807 34.8682C23.1788 36.7291 24.897 38.144 26.9341 38.8645C27.2806 38.9893 27.6521 39.0287 28.0171 38.9793C28.3821 38.9299 28.7298 38.7931 29.0306 38.5807C29.3315 38.3682 29.5766 38.0863 29.7452 37.7588C29.9139 37.4314 30.001 37.0681 29.9992 36.6997V36.3262C29.998 36.0239 30.0566 35.7244 30.1716 35.4449C30.2867 35.1655 30.456 34.9115 30.6697 34.6978C30.8835 34.4841 31.1374 34.3148 31.4169 34.1997C31.6963 34.0846 31.9959 34.026 32.2981 34.0273H36.7234C37.2435 34.0276 37.7482 33.8516 38.1553 33.5281C38.5624 33.2045 38.8478 32.7524 38.9648 32.2457Z" stroke="black" stroke-width="1.6" stroke-linecap="round" stroke-linejoin="round"/>
<path d="M29.9993 26.7476C30.8457 26.7476 31.5318 26.0614 31.5318 25.215C31.5318 24.3686 30.8457 23.6824 29.9993 23.6824C29.1528 23.6824 28.4667 24.3686 28.4667 25.215C28.4667 26.0614 29.1528 26.7476 29.9993 26.7476Z" fill="black"/>
<path d="M25.6888 29.238C26.5352 29.238 27.2214 28.5518 27.2214 27.7054C27.2214 26.859 26.5352 26.1729 25.6888 26.1729C24.8424 26.1729 24.1562 26.859 24.1562 27.7054C24.1562 28.5518 24.8424 29.238 25.6888 29.238Z" fill="black"/>
<path d="M25.6888 34.2189C26.5352 34.2189 27.2214 33.5327 27.2214 32.6863C27.2214 31.8399 26.5352 31.1537 25.6888 31.1537C24.8424 31.1537 24.1562 31.8399 24.1562 32.6863C24.1562 33.5327 24.8424 34.2189 25.6888 34.2189Z" fill="black"/>
<path d="M34.3096 29.238C35.156 29.238 35.8421 28.5518 35.8421 27.7054C35.8421 26.859 35.156 26.1729 34.3096 26.1729C33.4631 26.1729 32.777 26.859 32.777 27.7054C32.777 28.5518 33.4631 29.238 34.3096 29.238Z" fill="black"/>
</svg>
