<svg viewBox="0 0 340 100" fill="none" xmlns="http://www.w3.org/2000/svg" role="img" aria-label="Illuminairy">
  <defs>
    <linearGradient id="arc" x1="0" y1="0" x2="340" y2="0" gradientUnits="userSpaceOnUse">
      <stop offset="0%" stop-color="#0057A8" stop-opacity="0"/>
      <stop offset="10%" stop-color="#0057A8" stop-opacity="0.9"/>
      <stop offset="44%" stop-color="#3D9BBF"/>
      <stop offset="90%" stop-color="#77C89A" stop-opacity="0.85"/>
      <stop offset="100%" stop-color="#77C89A" stop-opacity="0"/>
    </linearGradient>
    <linearGradient id="star" x1="-11" y1="-11" x2="11" y2="11" gradientUnits="userSpaceOnUse">
      <stop offset="0%" stop-color="#B8F5D1"/>
      <stop offset="100%" stop-color="#77C89A"/>
    </linearGradient>
  </defs>
  <text x="52" y="58" font-family="'DM Sans', system-ui, sans-serif" font-weight="300" font-size="44" letter-spacing="5" fill="#F5F8FA">Illuminairy</text>
  <path d="M 0 74 Q 170 56 340 70" stroke="url(#arc)" stroke-width="1.6" fill="none" stroke-linecap="round"/>
  <g transform="translate(20,24) rotate(10)">
    <line x1="0" y1="-10" x2="0" y2="10" stroke="url(#star)" stroke-width="2.2" stroke-linecap="round"/>
    <line x1="-10" y1="0" x2="10" y2="0" stroke="url(#star)" stroke-width="2.2" stroke-linecap="round"/>
    <line x1="-7" y1="-7" x2="7" y2="7" stroke="url(#star)" stroke-width="1.6" stroke-linecap="round"/>
    <line x1="7" y1="-7" x2="-7" y2="7" stroke="url(#star)" stroke-width="1.6" stroke-linecap="round"/>
  </g>
  <g transform="translate(34,12) rotate(-5)">
    <line x1="0" y1="-6" x2="0" y2="6" stroke="#77C89A" stroke-width="1.5" stroke-linecap="round" opacity="0.82"/>
    <line x1="-6" y1="0" x2="6" y2="0" stroke="#77C89A" stroke-width="1.5" stroke-linecap="round" opacity="0.82"/>
    <line x1="-4" y1="-4" x2="4" y2="4" stroke="#77C89A" stroke-width="1.1" stroke-linecap="round" opacity="0.82"/>
    <line x1="4" y1="-4" x2="-4" y2="4" stroke="#77C89A" stroke-width="1.1" stroke-linecap="round" opacity="0.82"/>
  </g>
  <g transform="translate(8,38) rotate(15)">
    <line x1="0" y1="-4" x2="0" y2="4" stroke="#0057A8" stroke-width="1.3" stroke-linecap="round" opacity="0.72"/>
    <line x1="-4" y1="0" x2="4" y2="0" stroke="#0057A8" stroke-width="1.3" stroke-linecap="round" opacity="0.72"/>
    <line x1="-2.8" y1="-2.8" x2="2.8" y2="2.8" stroke="#0057A8" stroke-width="0.9" stroke-linecap="round" opacity="0.72"/>
    <line x1="2.8" y1="-2.8" x2="-2.8" y2="2.8" stroke="#0057A8" stroke-width="0.9" stroke-linecap="round" opacity="0.72"/>
  </g>
</svg>
