<svg width="40" height="41" viewBox="0 0 40 41" fill="none" xmlns="http://www.w3.org/2000/svg">
<path d="M29.9424 24.0725C31.8227 21.5545 32.7786 19.4937 32.9682 17.2941C33.1499 15.1002 32.5732 12.7674 30.6851 11.0598C28.8048 9.35215 25.621 8.26969 22.8085 8.54175C19.996 8.81382 17.5548 10.4404 14.1972 12.148C10.8396 13.8557 6.5656 15.6443 5.36476 18.3129C4.16392 20.9814 6.03628 24.5298 9.39389 27.0478C12.7515 29.5659 17.5944 31.0535 21.426 30.3068C25.2497 29.5659 28.0622 26.5905 29.9424 24.0725Z" fill="#EB1B20"/>
<path d="M26 19H14V14H26V19ZM24.5 25C24.1022 25 23.7206 24.842 23.4393 24.5607C23.158 24.2794 23 23.8978 23 23.5C23 23.1022 23.158 22.7206 23.4393 22.4393C23.7206 22.158 24.1022 22 24.5 22C24.8978 22 25.2794 22.158 25.5607 22.4393C25.842 22.7206 26 23.1022 26 23.5C26 23.8978 25.842 24.2794 25.5607 24.5607C25.2794 24.842 24.8978 25 24.5 25V25ZM15.5 25C15.1022 25 14.7206 24.842 14.4393 24.5607C14.158 24.2794 14 23.8978 14 23.5C14 23.1022 14.158 22.7206 14.4393 22.4393C14.7206 22.158 15.1022 22 15.5 22C15.8978 22 16.2794 22.158 16.5607 22.4393C16.842 22.7206 17 23.1022 17 23.5C17 23.8978 16.842 24.2794 16.5607 24.5607C16.2794 24.842 15.8978 25 15.5 25V25ZM12 24C12 24.88 12.39 25.67 13 26.22V28C13 28.2652 13.1054 28.5196 13.2929 28.7071C13.4804 28.8946 13.7348 29 14 29H15C15.2652 29 15.5196 28.8946 15.7071 28.7071C15.8946 28.5196 16 28.2652 16 28V27H24V28C24 28.2652 24.1054 28.5196 24.2929 28.7071C24.4804 28.8946 24.7348 29 25 29H26C26.2652 29 26.5196 28.8946 26.7071 28.7071C26.8946 28.5196 27 28.2652 27 28V26.22C27.61 25.67 28 24.88 28 24V14C28 10.5 24.42 10 20 10C15.58 10 12 10.5 12 14V24Z" fill="white"/>
</svg>
