<svg width="1286" height="556" viewBox="0 0 1286 556" fill="none" xmlns="http://www.w3.org/2000/svg">
<path d="M453.662 99C149.662 119 345.662 677 5.66229 509.001" stroke="#F87171" stroke-width="8" stroke-linejoin="round" stroke-dasharray="16 16"/>
<path d="M797.287 143.435C767.287 93.434 581.288 -0.565968 405.287 93.4344" stroke="#F87171" stroke-width="8" stroke-linejoin="round" stroke-dasharray="16 16"/>
<path d="M797.846 117.67C786.075 117.163 776.659 126.302 776.814 138.083C776.969 149.864 786.638 159.826 798.409 160.333C810.18 160.841 819.596 151.702 819.441 139.92C819.286 128.139 809.618 118.178 797.846 117.67ZM1285.2 137.346C1283.83 134.657 1282.45 132.05 1281.05 129.526L1274.11 133.1C1275.46 135.535 1276.8 138.053 1278.12 140.657L1285.2 137.346ZM1272.32 115.067C1269.01 110.076 1265.63 105.484 1262.18 101.275L1256.12 106.145C1259.37 110.109 1262.58 114.461 1265.73 119.225L1272.32 115.067ZM1250.31 88.5382C1245.86 84.3812 1241.3 80.7734 1236.64 77.6811L1232.49 84.2805C1236.73 87.0948 1240.91 90.4015 1245.03 94.2489L1250.31 88.5382ZM1221.2 69.4283C1215.74 67.1719 1210.19 65.5272 1204.56 64.432L1203.47 72.2892C1208.57 73.2825 1213.59 74.7698 1218.51 76.8046L1221.2 69.4283ZM1187.57 62.7331C1182.03 62.6693 1176.44 63.0522 1170.81 63.8209L1172.32 71.7557C1177.62 71.0332 1182.82 70.6804 1187.93 70.7393L1187.57 62.7331ZM1154.56 67.026C1149.37 68.3456 1144.14 69.9388 1138.88 71.7632L1141.87 79.3459C1146.95 77.5828 1151.97 76.0541 1156.93 74.7942L1154.56 67.026ZM1123.71 77.5938C1118.82 79.6437 1113.9 81.8578 1108.96 84.2044L1112.71 91.4751C1117.56 89.1711 1122.37 87.0055 1127.14 85.0065L1123.71 77.5938ZM1094.54 91.3689C1089.84 93.8003 1085.12 96.325 1080.38 98.9166L1084.51 105.995C1089.2 103.425 1093.88 100.928 1098.52 98.5282L1094.54 91.3689ZM1066.39 106.712C1061.78 109.321 1057.15 111.972 1052.52 114.639L1056.79 121.638C1061.42 118.975 1066.02 116.334 1070.61 113.737L1066.39 106.712ZM1038.72 122.593C1034.13 125.242 1029.52 127.884 1024.91 130.501L1029.14 137.522C1033.77 134.894 1038.39 132.242 1042.99 129.591L1038.72 122.593ZM1011.03 138.268C1006.37 140.833 1001.71 143.348 997.049 145.792L1001.06 152.931C1005.77 150.46 1010.48 147.921 1015.18 145.336L1011.03 138.268ZM982.911 152.962C978.125 155.3 973.346 157.538 968.574 159.652L972.145 167.005C977.012 164.849 981.877 162.571 986.736 160.197L982.911 152.962ZM953.991 165.714C949.006 167.64 944.037 169.402 939.087 170.973L941.885 178.619C946.998 176.996 952.113 175.182 957.227 173.206L953.991 165.714ZM923.865 175.188C918.664 176.406 913.493 177.378 908.353 178.073L909.857 186.009C915.263 185.278 920.678 184.259 926.095 182.99L923.865 175.188ZM892.629 179.308C887.329 179.408 882.069 179.172 876.852 178.566L876.374 186.519C881.973 187.169 887.594 187.42 893.228 187.313L892.629 179.308ZM861.278 175.589C856.227 174.227 851.21 172.471 846.231 170.284L843.373 177.589C848.744 179.948 854.159 181.843 859.61 183.313L861.278 175.589ZM832.027 162.784C827.619 160.049 823.234 156.933 818.878 153.408L814.07 159.523C818.697 163.268 823.374 166.594 828.099 169.526L832.027 162.784ZM806.835 142.522C804.889 140.573 802.95 138.534 801.017 136.402L795.239 141.601C797.262 143.832 799.297 145.971 801.343 148.021L806.835 142.522Z" fill="#F87171"/>
<path d="M796.377 0C776.66 0 760.662 15.0569 760.662 33.6101C760.662 63.4858 796.377 104.565 796.377 104.565C796.377 104.565 832.092 63.4858 832.092 33.6101C832.092 15.0569 816.094 0 796.377 0ZM796.377 52.2824C793.552 52.2824 790.79 51.4063 788.44 49.7649C786.091 48.1236 784.26 45.7906 783.179 43.061C782.097 40.3315 781.814 37.328 782.366 34.4304C782.917 31.5327 784.277 28.871 786.275 26.7819C788.273 24.6928 790.819 23.2702 793.59 22.6938C796.361 22.1174 799.234 22.4132 801.844 23.5438C804.455 24.6744 806.686 26.5891 808.255 29.0456C809.825 31.5021 810.663 34.3902 810.663 37.3446C810.659 41.305 809.152 45.102 806.474 47.9025C803.796 50.7029 800.165 52.2781 796.377 52.2824Z" fill="#F87171"/>
</svg>
