<svg width="279" height="44" viewBox="0 0 279 44" fill="none" xmlns="http://www.w3.org/2000/svg">
<path d="M0.666667 22C0.666667 33.7821 10.2179 43.3333 22 43.3333C33.7821 43.3333 43.3333 33.7821 43.3333 22C43.3333 10.2179 33.7821 0.666667 22 0.666667C10.2179 0.666667 0.666667 10.2179 0.666667 22ZM22 26H30.0314V18H22V26ZM46.0943 26H62.1572V18H46.0943V26ZM78.2201 26H94.283V18H78.2201V26ZM110.346 26H126.409V18H110.346V26ZM142.472 26H158.535V18H142.472V26ZM174.597 26H190.66V18H174.597V26ZM206.723 26H222.786V18H206.723V26ZM238.849 26H254.912V18H238.849V26ZM270.975 26H279.006V18H270.975V26Z" fill="#111827"/>
</svg>
